# xmcd
#
# Track frame offsets:
# 150
# 12913
# 27838
# 40521
# 52031
# 63877
# 75241
# 87230
# 102540
# 117757
# 131013
# 145306
# 161234
# 174465
# 189067
# 201701
# 212648
# 225668
# 242534
# 257352
# 271448
# 284999
# 298994
# 310389
# 321558
# 334751
#
# Disc length: 4653 seconds
#
#
# Revision: 0
# Processed by: cddbd v1.5.2PL0 Copyright (c) Steve Scherf et al.
# Submitted via: FreeRIP 2.945 
#
DISCID=85122b1a
DTITLE=Cooper-JF1826 - Last-Mohicans07
DYEAR=1826
DGENRE=Native American
TTITLE0=LM 0701
TTITLE1=LM 0702
TTITLE2=LM 0703
TTITLE3=LM 0704
TTITLE4=LM 0705
TTITLE5=LM 0706
TTITLE6=LM 0707
TTITLE7=LM 0708
TTITLE8=LM 0709
TTITLE9=LM 0710
TTITLE10=LM 0711
TTITLE11=LM 0712
TTITLE12=LM 0713
TTITLE13=LM 0714
TTITLE14=LM 0715
TTITLE15=LM 0716
TTITLE16=LM 0717
TTITLE17=LM 0718
TTITLE18=LM 0719
TTITLE19=LM 0720
TTITLE20=LM 0721
TTITLE21=LM 0722
TTITLE22=LM 0723
TTITLE23=LM 0724
TTITLE24=LM 0725
TTITLE25=LM 0726
EXTD=The Last of the Mohicans Tantor Media\nby James Finimore Cooper 12 CDs\nread by William Costello native country
EXTT0=
EXTT1=
EXTT2=
EXTT3=
EXTT4=
EXTT5=
EXTT6=
EXTT7=
EXTT8=
EXTT9=
EXTT10=
EXTT11=
EXTT12=
EXTT13=
EXTT14=
EXTT15=
EXTT16=
EXTT17=
EXTT18=
EXTT19=
EXTT20=
EXTT21=
EXTT22=
EXTT23=
EXTT24=
EXTT25=
PLAYORDER=
